#!OML:ASF \\sashay\E\basketball\basketball\Project 1\Capture day 1\Session 1\Subject.ASF
:FULLY-SPECIFIED
:DEGREES
257
root 12.7276 13.5508 -0.877529 -178.975 -31.1032 184.125
lowerback 36.4459 3.42596 -3.27549
upperback 12.6407 -0.0473505 0.25168
thorax -4.16628 -1.43043 2.08102
lowerneck -5.40388 5.13853 -18.6667
upperneck -17.9528 8.5641 17.7373
head -6.0168 3.92301 8.74388
rclavicle 9.54166e-015 5.1684e-014
rhumerus -28.0772 -18.0739 -71.3699
rradius 40.7253
rwrist -18.8785
rhand -38.4322 47.8843
rfingers 7.12502
rthumb -11.4561 18.2173
lclavicle 9.54166e-015 5.1684e-014
lhumerus -5.31498 26.4611 54.8387
lradius 87.4785
lwrist 31.2428
lhand -45.1811 16.2317
lfingers 7.12502
lthumb -17.9579 45.4226
rfemur -44.6538 -38.9599 12.3765
rtibia 65.107
rfoot -7.99073 -18.4832
rtoes -20.7968
lfemur -36.9344 15.2249 11.3572
ltibia 58.1966
lfoot -1.7806 11.9662
ltoes -28.5562
258
root 12.9994 13.6197 -1.09357 -178.992 -31.3446 184.234
lowerback 36.1071 3.48376 -3.61464
upperback 12.6116 -0.036882 0.197441
thorax -4.0839 -1.41764 2.19507
lowerneck -5.23487 5.29941 -19.1184
upperneck -17.6396 8.84911 18.2281
head -6.04406 4.07781 8.9703
rclavicle -4.13472e-014 7.71285e-014
rhumerus -29.1995 -15.1828 -72.0068
rradius 42.0477
rwrist -19.71
rhand -38.5834 48.4544
rfingers 7.12502
rthumb -11.6019 18.7955
lclavicle -4.13472e-014 7.71285e-014
lhumerus -5.042 26.6696 54.2248
lradius 88.0395
lwrist 30.5096
lhand -45.3926 15.4666
lfingers 7.12502
lthumb -18.1614 44.6387
rfemur -45.2058 -40.4988 14.3142
rtibia 65.9662
rfoot -8.82634 -18.1877
rtoes -25.0786
lfemur -36.236 13.9297 11.7432
ltibia 56.427
lfoot -2.68533 14.2743
ltoes -21.7469
259
root 13.282 13.6898 -1.30479 -178.819 -31.7827 184.2
lowerback 35.7301 3.5594 -4.23872
upperback 12.5878 -0.085187 0.203258
thorax -3.97815 -1.44177 2.5402
lowerneck -5.34977 5.40032 -19.4603
upperneck -17.2433 9.07168 18.7611
head -5.98159 4.1982 9.20308
rclavicle 1.98785e-014 -7.71285e-014
rhumerus -30.1696 -12.9026 -72.5722
rradius 43.1894
rwrist -19.9751
rhand -38.5993 48.6845
rfingers 7.12502
rthumb -11.6173 19.0265
lclavicle 1.98785e-014 -7.71285e-014
lhumerus -4.49381 26.9374 53.4372
lradius 88.4366
lwrist 30.0076
lhand -45.4616 15.1514
lfingers 7.12502
lthumb -18.2278 44.3173
rfemur -45.9551 -42.0182 16.2239
rtibia 66.8533
rfoot -9.67473 -17.9947
rtoes -25.3461
lfemur -35.9887 13.1345 11.6319
ltibia 54.9547
lfoot -3.32127 15.198
ltoes -20.0086
260
root 13.5681 13.7627 -1.50827 -178.567 -32.4209 184.273
lowerback 35.2712 3.52012 -4.67529
upperback 12.6016 -0.183729 0.1686
thorax -3.93369 -1.4729 2.77668
lowerneck -5.43774 5.42895 -19.4771
upperneck -16.9664 9.16447 19.1877
head -5.91401 4.23065 9.3521
rclavicle 2.70347e-014 -5.56597e-014
rhumerus -31.2278 -11.047 -73.177
rradius 44.3771
rwrist -20.4415
rhand -38.6073 48.997
rfingers 7.12502
rthumb -11.625 19.3395
lclavicle 2.70347e-014 -5.56597e-014
lhumerus -3.7909 26.9803 52.3762
lradius 88.6638
lwrist 29.6267
lhand -45.2555 15.444
lfingers 7.12502
lthumb -18.0295 44.6284
rfemur -46.9203 -43.4751 18.2995
rtibia 67.7973
rfoot -10.9931 -17.5693
rtoes -22.2726
lfemur -36.3386 12.8447 11.207
ltibia 53.8953
lfoot -3.57488 14.4846
ltoes -21.3174
261
root 13.8487 13.8324 -1.70265 -178.333 -33.1438 184.46
lowerback 34.9611 3.41244 -4.7863
upperback 12.465 -0.255438 0.114879
thorax -3.96756 -1.47052 2.80353
lowerneck -5.23828 5.45976 -18.9652
upperneck -17.0165 9.13737 18.7974
head -5.91763 4.20171 9.11072
rclavicle 8.66701e-014 -5.88403e-014
rhumerus -32.6204 -9.20581 -73.6888
rradius 45.7822
rwrist -21.4483
rhand -38.9436 49.3929
rfingers 7.12502
rthumb -11.9493 19.7539
lclavicle 8.66701e-014 -5.88403e-014
lhumerus -3.0238 26.8473 51.3444
lradius 88.8905
lwrist 29.3337
lhand -46.0015 16.1121
lfingers 7.12502
lthumb -18.7471 45.2287
rfemur -48.077 -44.8727 20.4671
rtibia 68.9221
rfoot -11.7535 -17.1676
rtoes -21.7557
lfemur -37.257 13.1917 10.3926
ltibia 53.5474
lfoot -3.48157 12.7341
ltoes -26.7474
